<?xml version="1.0" encoding="UTF-8"?>
<svg version="1.1" xmlns="http://www.w3.org/2000/svg" width="499" height="499">
<path d="M0 0 C0.98994965 0.00054382 1.97989929 0.00108765 2.99984741 0.00164795 C19.05496324 0.04209761 34.44764478 0.96884556 50.1875 4.375 C51.20457031 4.58930664 52.22164063 4.80361328 53.26953125 5.02441406 C68.03043827 8.21332699 82.17746417 12.7623425 96.1875 18.375 C96.96786621 18.68663086 97.74823242 18.99826172 98.55224609 19.31933594 C116.66321957 26.6758242 133.6720845 36.50076916 149.1875 48.375 C149.76016602 48.80635254 150.33283203 49.23770508 150.92285156 49.68212891 C159.83561708 56.40721562 168.14237968 63.63763054 176.1875 71.375 C176.67879395 71.84437988 177.17008789 72.31375977 177.67626953 72.79736328 C184.40342163 79.25316807 190.46990272 86.01571637 196.1875 93.375 C196.63706055 93.94283203 197.08662109 94.51066406 197.54980469 95.09570312 C209.78404491 110.58522866 219.95115202 127.4390152 228.1875 145.375 C228.6817749 146.44621094 228.6817749 146.44621094 229.18603516 147.5390625 C243.81047088 179.65547036 250.63538077 214.01516915 250.5625 249.1875 C250.56168427 250.67242447 250.56168427 250.67242447 250.56085205 252.18734741 C250.52040239 268.24246324 249.59365444 283.63514478 246.1875 299.375 C245.97319336 300.39207031 245.75888672 301.40914063 245.53808594 302.45703125 C242.34917301 317.21793827 237.8001575 331.36496417 232.1875 345.375 C231.72005371 346.54554932 231.72005371 346.54554932 231.24316406 347.73974609 C223.8866758 365.85071957 214.06173084 382.8595845 202.1875 398.375 C201.75614746 398.94766602 201.32479492 399.52033203 200.88037109 400.11035156 C194.15528438 409.02311708 186.92486946 417.32987968 179.1875 425.375 C178.48343018 426.11194092 178.48343018 426.11194092 177.76513672 426.86376953 C171.30933193 433.59092163 164.54678363 439.65740272 157.1875 445.375 C156.61966797 445.82456055 156.05183594 446.27412109 155.46679688 446.73730469 C139.97727134 458.97154491 123.1234848 469.13865202 105.1875 477.375 C104.47335937 477.7045166 103.75921875 478.0340332 103.0234375 478.37353516 C70.90702964 492.99797088 36.54733085 499.82288077 1.375 499.75 C0.38505035 499.74945618 -0.60489929 499.74891235 -1.62484741 499.74835205 C-17.67996324 499.70790239 -33.07264478 498.78115444 -48.8125 495.375 C-50.33810547 495.05354004 -50.33810547 495.05354004 -51.89453125 494.72558594 C-66.65543827 491.53667301 -80.80246417 486.9876575 -94.8125 481.375 C-95.59286621 481.06336914 -96.37323242 480.75173828 -97.17724609 480.43066406 C-115.28821957 473.0741758 -132.2970845 463.24923084 -147.8125 451.375 C-148.38516602 450.94364746 -148.95783203 450.51229492 -149.54785156 450.06787109 C-158.46061708 443.34278438 -166.76737968 436.11236946 -174.8125 428.375 C-175.30379395 427.90562012 -175.79508789 427.43624023 -176.30126953 426.95263672 C-183.02842163 420.49683193 -189.09490272 413.73428363 -194.8125 406.375 C-195.26206055 405.80716797 -195.71162109 405.23933594 -196.17480469 404.65429688 C-208.40904491 389.16477134 -218.57615202 372.3109848 -226.8125 354.375 C-227.1420166 353.66085937 -227.4715332 352.94671875 -227.81103516 352.2109375 C-242.43547088 320.09452964 -249.26038077 285.73483085 -249.1875 250.5625 C-249.18695618 249.57255035 -249.18641235 248.58260071 -249.18585205 247.56265259 C-249.14540239 231.50753676 -248.21865444 216.11485522 -244.8125 200.375 C-244.59819336 199.35792969 -244.38388672 198.34085938 -244.16308594 197.29296875 C-240.97417301 182.53206173 -236.4251575 168.38503583 -230.8125 154.375 C-230.50086914 153.59463379 -230.18923828 152.81426758 -229.86816406 152.01025391 C-222.5116758 133.89928043 -212.68673084 116.8904155 -200.8125 101.375 C-200.38114746 100.80233398 -199.94979492 100.22966797 -199.50537109 99.63964844 C-192.78028438 90.72688292 -185.54986946 82.42012032 -177.8125 74.375 C-177.10843018 73.63805908 -177.10843018 73.63805908 -176.39013672 72.88623047 C-169.93433193 66.15907837 -163.17178363 60.09259728 -155.8125 54.375 C-155.24466797 53.92543945 -154.67683594 53.47587891 -154.09179688 53.01269531 C-138.60227134 40.77845509 -121.7484848 30.61134798 -103.8125 22.375 C-102.74128906 21.8807251 -102.74128906 21.8807251 -101.6484375 21.37646484 C-69.53202964 6.75202912 -35.17233085 -0.07288077 0 0 Z " fill="#05AD5C" transform="translate(248.8125,-0.375)"/>
<path d="M0 0 C8.38819471 7.31440473 15.74099346 15.69004486 22.1875 24.75 C26.16209196 23.10665909 29.03172919 20.33142508 32.1875 17.5 C42.77135069 8.2470708 53.14542927 3.89415333 67.23046875 4.57080078 C79.801348 5.7218768 88.31006592 13.51750192 96.75 22.125 C97.37068359 22.74632812 97.99136719 23.36765625 98.63085938 24.0078125 C101.75180905 27.15805159 104.75690899 30.36756281 107.65234375 33.7265625 C111.2985343 37.9438308 115.20924918 41.84796088 119.1875 45.75 C123.79552955 50.26975312 128.19767797 54.85932227 132.41015625 59.75 C135.51136585 63.23971278 138.85584132 66.4821662 142.1875 69.75 C146.79552955 74.26975312 151.19767797 78.85932227 155.41015625 83.75 C158.51136585 87.23971278 161.85584132 90.4821662 165.1875 93.75 C169.79552955 98.26975312 174.19767797 102.85932227 178.41015625 107.75 C181.51136585 111.23971278 184.85584132 114.4821662 188.1875 117.75 C192.86352547 122.33644644 197.36405863 126.97731628 201.60791016 131.9699707 C203.17604097 133.73708689 204.82584084 135.3374559 206.5625 136.9375 C220.35062738 150.57035567 228.16582014 169.5419 228.37841797 188.84985352 C228.34745329 208.32884767 223.127929 224.35770153 211.1875 239.75 C210.53910156 240.60980469 209.89070313 241.46960938 209.22265625 242.35546875 C207.07636924 244.88075462 204.84769269 246.82028368 202.25 248.875 C198.06474428 252.22764517 193.94857589 255.63786579 189.875 259.125 C185.41732785 262.92662487 180.87837213 266.59604325 176.25 270.1875 C170.83402599 274.39083044 165.61370783 278.77507446 160.43774414 283.26928711 C155.88465103 287.20251429 151.19332322 290.92182889 146.4375 294.60546875 C142.24716768 297.86981246 138.19793537 301.26772465 134.1875 304.75 C129.05822166 309.2037707 123.80732428 313.44625218 118.4375 317.60546875 C114.24710343 320.86986251 110.19887167 324.26873843 106.1875 327.75 C84.20965214 346.7431639 63.79595008 359.56200455 33.72558594 357.99267578 C13.90304752 356.09736959 -4.48975079 344.60824711 -17.33203125 329.8671875 C-21.63234568 324.46301283 -25.44807252 318.75421659 -29.28369141 313.015625 C-32.05319887 308.91134054 -34.90488998 304.86456753 -37.75 300.8125 C-38.34393555 299.96502197 -38.93787109 299.11754395 -39.54980469 298.24438477 C-43.77905916 292.21256343 -48.02548351 286.19297117 -52.27758789 280.17724609 C-57.88796373 272.23592242 -63.45836953 264.26667976 -69.03027344 256.29833984 C-71.95626732 252.11456942 -74.88445555 247.93233546 -77.8125 243.75 C-81.33705566 238.71562489 -84.86110531 233.6808995 -88.3828125 228.64453125 C-89.56767734 226.95049915 -90.752573 225.25648862 -91.9375 223.5625 C-92.80713379 222.31883667 -92.80713379 222.31883667 -93.69433594 221.05004883 C-96.96453962 216.37708051 -100.2512798 211.7164313 -103.55297852 207.06567383 C-107.93892688 200.88221727 -112.27314034 194.66854576 -116.5 188.375 C-116.92249023 187.75004639 -117.34498047 187.12509277 -117.78027344 186.48120117 C-119.4903349 183.91432321 -120.8317934 181.69211981 -121.8125 178.75 C-122.1425 184.69 -122.4725 190.63 -122.8125 196.75 C-127.4325 196.75 -132.0525 196.75 -136.8125 196.75 C-136.84988281 194.76355469 -136.88726562 192.77710938 -136.92578125 190.73046875 C-136.97445816 188.80425387 -137.02323808 186.87804005 -137.07495117 184.9519043 C-137.12451319 182.9570937 -137.15901133 180.96192743 -137.19335938 178.96679688 C-137.22880859 177.71318359 -137.26425781 176.45957031 -137.30078125 175.16796875 C-137.32696533 174.01063232 -137.35314941 172.8532959 -137.38012695 171.66088867 C-137.58008906 168.76135019 -137.58008906 168.76135019 -139.18945312 166.8671875 C-141.50172528 165.27558741 -143.22793201 165.45449735 -146 165.5625 C-146.90105469 165.58957031 -147.80210937 165.61664063 -148.73046875 165.64453125 C-149.41753906 165.67933594 -150.10460937 165.71414062 -150.8125 165.75 C-151.9132076 169.0521228 -152.01877072 171.69083279 -152.12890625 175.16796875 C-152.17080078 176.42158203 -152.21269531 177.67519531 -152.25585938 178.96679688 C-152.29517578 180.27712891 -152.33449219 181.58746094 -152.375 182.9375 C-152.41820992 184.27279978 -152.461825 185.60808652 -152.50585938 186.94335938 C-152.61206434 190.21211234 -152.71279785 193.48104223 -152.8125 196.75 C-157.1025 196.75 -161.3925 196.75 -165.8125 196.75 C-165.8125 177.94 -165.8125 159.13 -165.8125 139.75 C-161.5225 139.75 -157.2325 139.75 -152.8125 139.75 C-152.4825 145.69 -152.1525 151.63 -151.8125 157.75 C-149.3375 155.77 -149.3375 155.77 -146.8125 153.75 C-141.83170617 152.08973539 -137.50976371 152.15096575 -132.625 153.875 C-129.22214456 156.14357029 -127.2708876 158.49625171 -124.8125 161.75 C-124.66554687 160.98816406 -124.51859375 160.22632813 -124.3671875 159.44140625 C-120.99592019 143.92195156 -111.15401911 134.70126071 -98.68359375 125.4765625 C-98.06613281 124.90679687 -97.44867188 124.33703125 -96.8125 123.75 C-96.8125 119.48208022 -99.27924233 117.33985206 -101.875 114.1875 C-102.89103128 112.92063906 -103.90535138 111.65240388 -104.91796875 110.3828125 C-105.66312744 109.45130371 -105.66312744 109.45130371 -106.42333984 108.50097656 C-120.39585067 90.8892283 -125.86618821 71.06093864 -123.8125 48.75 C-121.30605202 29.27716193 -110.91697058 11.54160264 -95.5625 -0.5625 C-67.09558912 -21.9591701 -28.18080988 -22.0876618 0 0 Z " fill="#FDFEFE" transform="translate(244.8125,83.25)"/>
<path d="M0 0 C7.19194436 5.8157081 13.12997103 13.27488094 18.9375 20.4375 C17.42068506 24.25096128 15.19296974 26.11002097 12 28.625 C11.00355469 29.4190625 10.00710937 30.213125 8.98046875 31.03125 C7.97628906 31.8253125 6.97210938 32.619375 5.9375 33.4375 C4.22605185 34.82951246 2.51769278 36.22533181 0.8125 37.625 C-0.09371094 38.36621094 -0.99992187 39.10742188 -1.93359375 39.87109375 C-4.98909159 42.37450164 -8.03627784 44.88794456 -11.08374023 47.40112305 C-20.04256857 54.78890023 -29.04021443 62.12738437 -38.0625 69.4375 C-42.86693909 67.33977801 -45.33586468 63.88085677 -48.5625 59.875 C-49.13097656 59.19630859 -49.69945312 58.51761719 -50.28515625 57.81835938 C-59.03180917 47.05246755 -61.28954757 36.05498606 -60.0625 22.4375 C-57.72035012 11.75673215 -50.51253664 3.67763945 -41.51171875 -2.12109375 C-40.70347656 -2.59675781 -39.89523438 -3.07242188 -39.0625 -3.5625 C-38.45019531 -3.92472656 -37.83789062 -4.28695312 -37.20703125 -4.66015625 C-25.6620568 -10.13955913 -10.09326555 -6.92281633 0 0 Z " fill="#06AD5D" transform="translate(219.0625,111.5625)"/>
<path d="M0 0 C6.1553107 2.37069825 9.6324171 6.4894098 13 12 C15.41452592 19.24357776 15.09010846 27.73072013 11.8125 34.625 C9.02847836 39.39537416 6.21710062 42.03604321 1.125 44.25 C-4.14513305 45.51483193 -8.100735 45.74741385 -12.875 43.0625 C-16 41 -16 41 -17 40 C-17.33 48.25 -17.66 56.5 -18 65 C-22.62 65 -27.24 65 -32 65 C-32 43.88 -32 22.76 -32 1 C-27.38 1 -22.76 1 -18 1 C-17.67 2.32 -17.34 3.64 -17 5 C-16.21625 4.360625 -15.4325 3.72125 -14.625 3.0625 C-9.91270958 -0.6400139 -5.86776257 -0.74743096 0 0 Z " fill="#0EB062" transform="translate(215,236)"/>
<path d="M0 0 C5.40778841 3.14634962 9.12545417 7.31886286 11.875 12.9375 C13.40727278 21.27987404 12.45103839 28.41887193 8.4375 36 C4.26260612 40.96634295 -0.42785699 43.64513475 -6.875 44.375 C-11.36821132 43.91806326 -14.81261564 42.50602028 -18.5625 40 C-18.8925 39.34 -19.2225 38.68 -19.5625 38 C-19.8925 46.25 -20.2225 54.5 -20.5625 63 C-24.8525 63 -29.1425 63 -33.5625 63 C-33.5625 42.21 -33.5625 21.42 -33.5625 0 C-29.2725 0 -24.9825 0 -20.5625 0 C-20.2325 1.32 -19.9025 2.64 -19.5625 4 C-19.0778125 3.6390625 -18.593125 3.278125 -18.09375 2.90625 C-11.67813468 -1.53532984 -7.65976121 -2.15010841 0 0 Z " fill="#08AE5E" transform="translate(271.5625,237)"/>
<path d="M0 0 C6.04478848 3.35928532 9.5272173 8.5816519 11.6875 15.0625 C12.39227937 22.21427758 12.06207597 28.17811462 7.6875 34.0625 C2.42299938 39.92675385 -3.82378009 43.03640606 -11.6875 43.5625 C-17.82959444 43.32871786 -23.42277513 40.64164696 -27.984375 36.5703125 C-33.21495742 30.63206304 -33.76302578 24.92751965 -33.625 17.29296875 C-33.02845354 11.12616976 -30.82269109 7.57269109 -26.5 3.25 C-18.06351056 -2.53974765 -9.55285838 -4.15779529 0 0 Z " fill="#0BAF60" transform="translate(163.3125,237.9375)"/>
<path d="M0 0 C4.10206737 2.15817723 7.14928717 5.11523683 8.9375 9.4375 C8.9375 11.0875 8.9375 12.7375 8.9375 14.4375 C3.9875 14.4375 -0.9625 14.4375 -6.0625 14.4375 C-6.7225 13.1175 -7.3825 11.7975 -8.0625 10.4375 C-10.3725 10.4375 -12.6825 10.4375 -15.0625 10.4375 C-15.83206136 12.78283951 -15.83206136 12.78283951 -16.0625 15.4375 C-13.64042185 18.95549944 -9.65723068 19.87079995 -5.8125 21.25 C0.428778 23.60559356 6.76530976 26.09311952 9.9375 32.4375 C10.47849901 38.71308851 9.68754792 43.26541556 5.9375 48.4375 C-1.6454727 54.47292725 -9.81773125 54.25481747 -19.0625 53.4375 C-23.64752055 51.79530066 -27.84611117 48.87027765 -30.0625 44.4375 C-30.75 40.6875 -30.75 40.6875 -31.0625 37.4375 C-26.4425 37.4375 -21.8225 37.4375 -17.0625 37.4375 C-16.4025 38.7575 -15.7425 40.0775 -15.0625 41.4375 C-11.64006686 42.43832535 -11.64006686 42.43832535 -8.0625 42.4375 C-7.0725 41.7775 -6.0825 41.1175 -5.0625 40.4375 C-4.8511547 38.0462705 -4.8511547 38.0462705 -6.0625 35.4375 C-8.87805561 33.70946942 -11.99812158 32.65193406 -15.0625 31.4375 C-25.75292316 26.74707684 -25.75292316 26.74707684 -29.8125 22.6875 C-31.55821506 18.14864085 -31.81391737 14.235613 -31.0625 9.4375 C-28.98184085 4.84271105 -25.9242041 1.85435339 -21.59765625 -0.64453125 C-14.77866486 -3.11365756 -6.72188069 -2.58533873 0 0 Z " fill="#F9FDFB" transform="translate(59.0625,226.5625)"/>
<path d="M0 0 C5.53389461 3.19306855 8.87447183 7.81144365 11.6875 13.4375 C11.6875 17.0675 11.6875 20.6975 11.6875 24.4375 C1.7875 24.4375 -8.1125 24.4375 -18.3125 24.4375 C-16.14583333 30.27083333 -16.14583333 30.27083333 -13.3125 31.4375 C-10.35445427 31.77090471 -10.35445427 31.77090471 -7.3125 31.4375 C-6.91289062 30.94121094 -6.51328125 30.44492187 -6.1015625 29.93359375 C-3.27688633 27.57147372 -0.12614639 28.12250727 3.375 28.25 C4.4278418 28.27030273 4.4278418 28.27030273 5.50195312 28.29101562 C7.23079829 28.32629818 8.95924765 28.38010417 10.6875 28.4375 C8.50153926 34.63105544 5.71190284 38.36280785 -0.19921875 41.41015625 C-6.33593991 44.00228798 -11.98422654 44.33379887 -18.375 42.4375 C-23.8814154 40.16759701 -27.31223113 35.51124649 -30.484375 30.63671875 C-32.79018448 24.51327188 -32.44256494 14.91288103 -29.875 8.875 C-23.90647828 -0.95803218 -10.31742094 -4.66076545 0 0 Z " fill="#0CAF61" transform="translate(321.3125,237.5625)"/>
<path d="M0 0 C4.62 0 9.24 0 14 0 C15.67330916 3.99734965 17.33964528 7.99727516 19 12 C19.40347656 12.96292969 19.80695313 13.92585937 20.22265625 14.91796875 C20.58230469 15.79066406 20.94195312 16.66335937 21.3125 17.5625 C21.63863281 18.34753906 21.96476562 19.13257813 22.30078125 19.94140625 C23 22 23 22 23 25 C23.66 25 24.32 25 25 25 C25.09152344 24.21367187 25.18304688 23.42734375 25.27734375 22.6171875 C26.21761004 17.91077353 27.85986798 13.60241648 29.5625 9.125 C29.89185547 8.24585938 30.22121094 7.36671875 30.56054688 6.4609375 C31.36884837 4.30546686 32.18376321 2.15247822 33 0 C37.95 0 42.9 0 48 0 C42.92262136 13.6427884 37.08954193 26.95978685 31.34570312 40.33178711 C29.99360952 43.48185232 28.64509423 46.63343132 27.296875 49.78515625 C26.88024597 50.75179703 26.46361694 51.71843781 26.03436279 52.71437073 C25.65016174 53.61308395 25.26596069 54.51179718 24.87011719 55.43774414 C24.53212097 56.22460098 24.19412476 57.01145782 23.84588623 57.82215881 C22.84564265 60.26279855 22.84564265 60.26279855 22 64 C17.05 64 12.1 64 7 64 C8.88993476 57.93231471 11.15839336 52.35718136 14.01171875 46.67578125 C16.3470022 40.35297824 14.33947273 35.65577831 11.71875 29.86328125 C11.38580933 29.10202438 11.05286865 28.34076752 10.70983887 27.55644226 C9.6501758 25.13711105 8.57613839 22.72454262 7.5 20.3125 C6.42581264 17.88896991 5.35485006 15.46414115 4.29016113 13.03642273 C3.62841696 11.52907319 2.96088082 10.02425032 2.2869873 8.52229309 C0.96203 5.51716817 0 3.32217891 0 0 Z " fill="#0BAF60" transform="translate(378,237)"/>
<path d="M0 0 C11.22 0 22.44 0 34 0 C34 11 34 11 31.8046875 14.41796875 C30.85386785 15.36763829 29.87609138 16.29098102 28.875 17.1875 C27.86322324 18.18350078 26.85409749 19.18220182 25.84765625 20.18359375 C25.35797363 20.65780762 24.86829102 21.13202148 24.36376953 21.62060547 C21.54530869 24.47135802 19.31791087 27.74239553 17 31 C22.61 31.33 28.22 31.66 34 32 C34 35.63 34 39.26 34 43 C22.78 43 11.56 43 0 43 C0 30.76248937 0 30.76248937 4.42578125 25.9453125 C5.02777344 25.34460938 5.62976563 24.74390625 6.25 24.125 C7.42228922 22.87799344 8.59417336 21.63060593 9.765625 20.3828125 C10.28930664 19.85059082 10.81298828 19.31836914 11.35253906 18.77001953 C13.35474908 16.61886028 15.16416898 14.29478877 17 12 C11.39 11.67 5.78 11.34 0 11 C0 7.37 0 3.74 0 0 Z " fill="#0BAF60" transform="translate(339,237)"/>
<path d="M0 0 C4.68482031 2.71132864 8.73253017 6.02963487 10.80859375 11.12890625 C11.8627683 17.36999274 11.26005024 22.96031811 8.0859375 28.47265625 C5.35347815 32.01566165 1.96632378 33.74299624 -2.19140625 35.12890625 C-8.01528172 35.69460116 -13.7018248 35.993915 -18.6875 32.58203125 C-22.93249631 28.48037248 -25.44719011 23.47580384 -25.75390625 17.56640625 C-25.38794043 12.04802686 -23.59640031 7.33166217 -19.47265625 3.5546875 C-13.63260883 -0.76348316 -7.03845444 -2.797817 0 0 Z " fill="#FBFDFC" transform="translate(78.19140625,152.87109375)"/>
<path d="M0 0 C3.26244817 0.9029402 4.89772796 2.94405434 6.93359375 5.53515625 C8.67493064 9.01783004 7.80290056 12.83401664 6.93359375 16.53515625 C5.03295693 18.98759086 3.6750452 20.16443052 0.93359375 21.53515625 C-2.93854807 21.96539423 -4.59136996 21.85184711 -7.87890625 19.66015625 C-10.77388476 16.84789141 -11.26761679 15.21547176 -11.44140625 11.28515625 C-11.38719686 7.92959481 -11.0260354 5.72797374 -9.06640625 2.97265625 C-5.72356948 0.25660138 -4.18769124 -0.30873338 0 0 Z " fill="#F8FCFA" transform="translate(208.06640625,247.46484375)"/>
<path d="M0 0 C2.75329021 1.79562405 4.52627461 3.05254922 6 6 C6.34708476 11.29304255 6.51351894 14.73358414 3 19 C-0.20528701 21.32106991 -3.12159743 21.55405751 -7 21 C-9.95136343 18.96683853 -11.57807734 17.33445306 -12.671875 13.875 C-13.40445132 9.53814817 -13.25554532 7.49346683 -11.1875 3.5 C-7.68534031 -0.50246822 -5.235705 -0.44370381 0 0 Z " fill="#F9FDFB" transform="translate(264,248)"/>
<path d="M0 0 C3.67072604 0.87225173 4.96573647 2.33293785 6.97265625 5.46875 C7.89321637 10.43814532 7.75670966 14.18812944 5.09765625 18.53125 C2.58641751 20.82090885 1.53060309 21.39435709 -1.83984375 21.84375 C-5.02734375 21.46875 -5.02734375 21.46875 -7.90234375 19.65625 C-11.00512178 15.00208296 -10.88325586 10.90582977 -10.02734375 5.46875 C-7.78342274 0.70041786 -5.31743453 -0.3975652 0 0 Z " fill="#FAFDFC" transform="translate(154.02734375,247.53125)"/>
<path d="M0 0 C10.23 0 20.46 0 31 0 C31 2.97 31 5.94 31 9 C20.77 9 10.54 9 0 9 C0 6.03 0 3.06 0 0 Z " fill="#05AD5C" transform="translate(296,222)"/>
<path d="M0 0 C2.4375 1.25 2.4375 1.25 4 3 C4 4.32 4 5.64 4 7 C-1.28 7 -6.56 7 -12 7 C-9.24686994 0.11717484 -7.11396363 -0.6240319 0 0 Z " fill="#F7FCFA" transform="translate(315,247)"/>
</svg>
